<?xml version="1.0" standalone="no"?>
<!DOCTYPE svg PUBLIC "-//W3C//DTD SVG 20010904//EN"
 "http://www.w3.org/TR/2001/REC-SVG-20010904/DTD/svg10.dtd">
<svg version="1.0" xmlns="http://www.w3.org/2000/svg"
 width="1280.000000pt" height="640.000000pt" viewBox="0 0 1280.000000 640.000000"
 preserveAspectRatio="xMidYMid meet">
<metadata>
Created by potrace 1.15, written by Peter Selinger 2001-2017
</metadata>
<g transform="translate(0.000000,640.000000) scale(0.100000,-0.100000)"
fill="#000000" stroke="none">
<path d="M9611 5708 c5 -135 -4 -593 -11 -607 -5 -9 -21 -77 -35 -151 -28
-142 -37 -160 -84 -160 -43 0 -74 -22 -77 -55 -3 -32 -55 -85 -84 -85 -16 0
-17 -38 -22 -527 -3 -291 -1 -557 3 -593 5 -36 11 -286 15 -557 l7 -492 -24
-5 c-13 -4 -58 -2 -99 3 -42 4 -85 4 -98 0 -13 -5 -61 -9 -108 -9 l-84 0 0
-365 0 -365 -29 0 c-21 0 -32 6 -36 20 -5 17 -15 20 -59 20 l-53 0 -8 118 c-4
64 -10 155 -14 202 l-6 85 -31 3 -31 3 -7 217 c-3 119 -7 361 -7 538 -1 308 0
322 20 355 26 43 26 49 0 49 -20 0 -21 3 -15 88 4 48 9 129 12 180 l6 92 -31
0 c-18 0 -34 7 -40 18 -6 9 -11 12 -11 5 0 -7 -9 -9 -27 -4 -24 7 -28 13 -28
44 0 22 -5 37 -12 37 -7 0 -13 19 -15 48 l-3 47 -13 -30 c-7 -16 -15 -36 -17
-42 -3 -8 -21 -13 -45 -13 -36 0 -40 2 -40 25 0 14 -7 28 -15 31 -12 5 -15 30
-15 140 l0 134 -25 0 c-18 0 -25 5 -25 20 0 11 -6 20 -13 20 -11 0 -15 55 -21
274 -3 150 -4 281 0 290 4 10 1 16 -9 16 -12 0 -15 -37 -22 -222 -5 -169 -10
-225 -21 -235 -17 -17 -18 -40 -2 -45 6 -2 13 -31 16 -66 3 -49 1 -63 -11 -68
-14 -5 -105 14 -148 31 -19 7 -61 -81 -99 -205 -12 -41 -24 -70 -25 -65 -2 6
-6 22 -9 38 -4 15 -10 27 -15 27 -12 0 -24 -162 -13 -169 11 -7 10 24 17 -447
6 -368 6 -382 -14 -432 -12 -29 -21 -62 -21 -74 0 -16 -3 -18 -14 -9 -21 17
-41 -11 -27 -38 7 -12 11 -114 11 -280 l0 -261 -25 0 c-29 0 -45 26 -51 83 -3
38 -30 77 -53 77 -23 0 -44 -31 -48 -73 -4 -36 -10 -47 -23 -47 -14 0 -19 12
-25 57 -4 32 -12 69 -19 83 -8 16 -13 97 -15 235 -2 191 -4 212 -22 231 -16
18 -19 36 -19 135 0 74 -4 119 -12 127 -8 8 -8 15 2 26 10 13 9 17 -5 22 -15
6 -16 9 -4 18 11 9 13 59 11 277 l-3 265 -187 12 c-103 7 -242 13 -310 14
l-123 3 1 -283 c0 -155 3 -296 7 -312 l6 -30 -62 0 -61 0 -2 -265 -3 -266
-220 -1 -220 -1 -5 179 -5 180 -59 53 -59 53 -161 -3 -161 -4 -5 331 c-4 268
-8 334 -19 348 -16 19 -131 80 -131 70 0 -4 -8 0 -17 8 -10 9 -53 34 -95 57
-53 29 -78 49 -80 63 -4 26 -68 38 -68 13 0 -23 -46 -28 -345 -37 l-100 -3 -6
-725 c-6 -654 -13 -855 -32 -810 -3 8 -7 24 -9 35 -3 17 -11 20 -58 20 -53 0
-55 -1 -58 -28 -2 -18 -12 -31 -25 -37 -12 -5 -34 -20 -49 -35 -23 -21 -40
-27 -95 -31 -38 -3 -83 -7 -100 -10 l-33 -5 0 -84 0 -85 -110 0 -110 0 -1 -62
c-1 -35 -4 -88 -8 -118 l-6 -55 -8 43 c-7 43 -15 50 -34 31 -16 -16 -36 0 -29
24 2 11 -6 41 -18 66 -13 25 -40 85 -60 134 l-36 87 0 170 0 169 -42 11 c-24
6 -54 15 -68 19 l-25 8 -7 289 c-3 159 -11 307 -17 329 -6 22 -11 101 -11 175
-1 158 -15 350 -33 434 -11 55 -15 61 -44 68 -31 8 -31 9 -36 81 -6 91 -20
153 -41 176 -23 25 -66 157 -66 202 0 21 -4 40 -9 43 -11 7 -21 -28 -21 -77 0
-21 -6 -50 -14 -65 -8 -15 -17 -44 -21 -65 -5 -26 -12 -37 -23 -35 -20 4 -28
-29 -48 -189 -5 -39 -8 -43 -34 -43 -27 0 -29 -3 -35 -47 -3 -27 -13 -82 -21
-124 -8 -45 -14 -140 -14 -235 l-1 -159 -47 51 c-26 28 -80 89 -121 137 -60
71 -71 90 -61 102 9 11 4 18 -31 35 -36 19 -64 22 -213 27 -191 6 -242 -1
-239 -35 2 -15 -22 -44 -84 -101 -92 -87 -101 -90 -196 -75 -31 6 -37 11 -37
30 0 18 -5 24 -23 24 -13 0 -29 -6 -36 -12 -10 -11 -14 -10 -22 5 -6 9 -19 17
-29 17 -10 0 -24 -8 -30 -17 -8 -13 -13 -14 -16 -5 -7 16 -46 16 -63 0 -10
-11 -14 -10 -22 5 -14 24 -42 21 -67 -8 -15 -17 -32 -25 -55 -25 -18 0 -43 -7
-55 -16 -21 -14 -22 -23 -22 -133 l0 -118 -58 -5 c-37 -4 -81 -17 -120 -37
l-62 -31 0 -153 c0 -83 -3 -236 -7 -339 l-6 -187 -31 -3 c-23 -2 -32 -9 -34
-26 -3 -18 -10 -22 -36 -22 -31 0 -34 -3 -40 -38 -3 -20 -6 -62 -6 -93 0 -47
-4 -59 -26 -80 l-27 -24 6 82 c7 112 0 163 -24 163 -10 0 -20 4 -23 9 -3 5
-15 7 -26 4 -12 -3 -20 0 -20 7 0 8 -8 10 -24 6 -16 -4 -26 -1 -30 9 -4 12 3
15 32 16 l37 0 -37 16 -38 15 -2 441 -3 441 -25 6 c-18 4 -26 14 -28 33 -2 15
-7 27 -12 27 -5 0 -10 14 -12 31 -2 18 -10 35 -18 39 -47 23 -69 30 -110 32
l-45 3 3 62 c4 55 2 62 -17 68 -12 3 -21 13 -21 20 0 20 -18 28 -46 21 -26 -7
-26 -7 -21 -97 4 -70 2 -89 -8 -85 -21 8 -55 -23 -55 -50 0 -13 -4 -24 -8 -24
-20 0 -32 -171 -39 -532 l-6 -388 -23 0 c-12 0 -25 -7 -28 -16 -5 -12 -20 -15
-83 -12 -67 3 -78 1 -81 -14 -2 -12 3 -18 16 -18 34 0 52 -11 52 -31 0 -14 -7
-19 -29 -19 -16 0 -42 -5 -57 -10 -15 -6 -47 -11 -71 -12 l-44 -2 6 -36 c6
-34 4 -36 -32 -50 -21 -8 -65 -22 -98 -30 -48 -12 -60 -19 -60 -35 0 -13 8
-21 23 -23 45 -7 16 -27 -32 -24 l-48 4 4 -39 3 -38 -95 -5 c-52 -3 -104 -10
-116 -17 -26 -15 -33 -61 -35 -212 -1 -58 -4 -93 -6 -76 -3 16 -13 40 -24 53
-10 13 -21 40 -25 61 -4 20 -10 41 -14 46 -5 6 -10 26 -12 45 -3 30 -7 35 -28
35 -21 0 -25 -5 -28 -35 -2 -19 -10 -39 -18 -43 -12 -7 -14 -117 -14 -732 l0
-725 6400 0 6400 0 0 930 0 930 -24 0 c-39 0 -109 -29 -139 -58 -36 -33 -77
-96 -77 -117 0 -8 -7 -15 -15 -15 -13 0 -15 41 -17 282 -3 274 -4 283 -23 286
-11 2 -23 7 -27 11 -14 13 -7 456 7 500 6 17 5 22 -3 17 -8 -5 -12 4 -12 28 0
19 4 37 9 41 8 5 8 227 -1 675 0 36 1 71 3 79 3 10 -7 17 -31 21 -19 3 -44 11
-56 18 -20 11 -208 0 -244 -15 -8 -3 -19 -5 -25 -4 -81 21 -187 28 -193 13 -1
-4 -32 -7 -68 -7 -36 1 -67 -3 -70 -7 -2 -3 -5 -119 -6 -256 l-2 -250 -38 -6
c-21 -3 -56 -9 -79 -12 -22 -3 -42 -11 -44 -18 -2 -6 -6 -75 -8 -153 -3 -120
-7 -146 -22 -163 -17 -19 -17 -62 -5 -1045 7 -564 10 -1028 8 -1030 -2 -2 -34
1 -71 7 l-67 11 0 116 c0 64 -3 166 -7 228 l-6 111 -29 6 c-18 4 -32 14 -35
26 -3 13 -14 20 -29 20 l-24 0 0 184 c0 113 -4 187 -10 191 -5 3 -10 27 -10
52 0 30 -6 53 -17 65 -14 15 -18 52 -25 201 -4 100 -11 208 -14 239 -5 52 -8
57 -32 60 -23 3 -30 14 -61 100 -29 80 -37 94 -46 81 -11 -14 -13 -13 -19 10
-10 43 -22 32 -41 -38 -9 -35 -23 -69 -31 -76 -8 -6 -14 -20 -14 -31 0 -13 -6
-18 -22 -17 -69 6 -68 7 -68 -92 l0 -90 -202 6 c-112 3 -250 8 -308 11 l-106
5 -22 -31 -23 -30 1 -565 c0 -510 -1 -566 -16 -572 -8 -3 -23 1 -31 10 -13 12
-17 49 -21 180 l-5 165 -34 7 c-26 5 -33 10 -29 23 10 31 -11 47 -61 47 -46 0
-47 1 -54 35 -4 19 -13 305 -18 635 -6 330 -16 825 -21 1100 -6 275 -10 570
-10 655 0 85 -3 178 -6 207 -6 49 -8 52 -43 60 -29 7 -36 14 -38 35 -1 15 -7
36 -12 47 -6 11 -11 29 -11 40 0 15 -9 22 -37 26 -65 11 -72 15 -82 48 -5 18
-21 72 -35 121 -14 48 -26 101 -26 117 0 17 -6 32 -15 35 -19 7 -21 94 -3 112
9 9 9 12 -1 12 -9 0 -12 17 -10 63 1 34 -1 79 -5 99 -5 22 -4 50 2 68 7 18 7
32 2 35 -5 3 -9 62 -7 130 1 95 -1 125 -11 125 -8 0 -12 -14 -11 -42z"/>
</g>
</svg>
